/* XPM */
static char *birch_planks1670428989[] = {
/* columns rows colors chars-per-pixel */
"16 16 9 1 ",
"  c #D7CB8D",
". c #D7C185",
"X c #C8B77A",
"o c #BAA973",
"O c #B8A875",
"+ c #AE9869",
"@ c #A59467",
"# c #9E8B61",
"$ c #8E815E",
/* pixels */
" XXXX  .X      o",
"  .O..XXXXX.X. o",
"  XXXX..O  .   o",
"###@@@@@@@####@@",
" XXXX  o XXO... ",
"XXO... o....XXXX",
"   .   oXXO     ",
"@@#####@@@####@@",
"     OX  ...   o",
"XXXXX ..XXXO XXo",
" ...  XXXX.....o",
"@#@@###@@@@@###@",
"     X oXOXX.   ",
".XO    o ..XXXX.",
"  XXX  o  X.    ",
"@@@+##+#@@@#$##@"
};
