/* XPM */
static char *emerald_ore1670428989[] = {
/* columns rows colors chars-per-pixel */
"16 16 25 1 ",
"  c #007B18",
". c #17DD62",
"X c #515151",
"o c gray34",
"O c #585858",
"+ c #5B5B5B",
"@ c gray36",
"# c #5F5F5F",
"$ c #5FAD7D",
"% c gray38",
"& c #626262",
"* c gray39",
"= c gray40",
"- c #686868",
"; c #6A6A6A",
": c gray42",
"> c #6D6D6D",
", c #747474",
"< c #777777",
"1 c #7C7C7C",
"2 c gray50",
"3 c #848484",
"4 c #888888",
"5 c gray56",
"6 c #D9FFEB",
/* pixels */
"2,,,,@*<-52,,,,2",
"225>#+6.%555-22,",
"2-,,-%. <,22;<22",
"2522;o;<22,%6.%2",
"255%6.%%,,5*. <-",
",,2;. 6.;-=2%%-2",
"552:;%. ;222555-",
"22231%%%%-,,,,22",
"255-*,6.O<**<555",
"2,,,-o. o;6.O%<2",
"225,,<*%o%. *6.;",
"-2243=26.5;;;. o",
"2%%,&33$ #&&,%%2",
";6.*<<2,+,-,2255",
";. X,,,,22552,,2",
",%%,-552222,,,22"
};
