/* XPM */
static char *nether_bricks1670428989[] = {
/* columns rows colors chars-per-pixel */
"16 16 24 1 ",
"  c #4A2A30",
". c #46262C",
"X c #44242A",
"o c #402026",
"O c #3E1E24",
"+ c #381A1F",
"@ c #331B1F",
"# c #38181E",
"$ c #36181E",
"% c #34181D",
"& c #30181C",
"* c #2E161B",
"= c #291519",
"- c #241417",
"; c #221216",
": c #211114",
"> c #1E1013",
", c #1F0F13",
"< c #1D0F12",
"1 c #1C0E11",
"2 c #1C0E10",
"3 c #1B0D10",
"4 c #190D10",
"5 c #190D0F",
/* pixels */
"-,55--555555,---",
"-O...OO+-+O..X++",
"-+&&%%&&>+&%%%&&",
"-+&-&&-2>+&-&&&-",
"->>>254241,,555,",
"++-O.. .OO-OO+++",
"*=>+&#&&&&@o-&&&",
"=->+&&$&=--+&-&-",
"--555,>>>>------",
"-+++-OOO-O++>+++",
"-+&&-+&&-O&&>+&&",
"-+-&-+&&>+&->+&&",
",,5555->3<:3;,--",
"@OO.O+++>+O..XX+",
"-+%&&&&&-+&&&&&-",
"-+&&&&>>>+&-->--"
};
